<svg width="60" height="60" viewBox="0 0 60 60" fill="none" xmlns="http://www.w3.org/2000/svg">
<circle cx="30" cy="30" r="27.5" fill="#FF0000" stroke="white" stroke-width="5"/>
<path d="M20.3203 40.457L26.3359 31.0469V30.6602L20.9219 22.4531C20.7643 22.2096 20.6139 21.9733 20.4707 21.7441C20.3275 21.5007 20.1914 21.2643 20.0625 21.0352C19.8477 20.6484 19.6471 20.2402 19.4609 19.8105C19.2891 19.3809 19.2031 19.0156 19.2031 18.7148C19.2031 18.3281 19.3105 17.9342 19.5254 17.5332C19.7546 17.1322 20.1484 16.7669 20.707 16.4375C21.3516 16.0938 21.9388 15.9219 22.4688 15.9219C23.2852 15.9219 23.9583 16.2513 24.4883 16.9102C25.0326 17.5547 25.5339 18.2565 25.9922 19.0156L29.9883 25.5898H30.6328L34.6289 19.0156C35.1016 18.2565 35.6029 17.5547 36.1328 16.9102C36.6628 16.2513 37.3359 15.9219 38.1523 15.9219C38.4102 15.9219 38.6823 15.972 38.9688 16.0723C39.2695 16.1725 39.5846 16.3086 39.9141 16.4805C40.5156 16.8099 40.931 17.168 41.1602 17.5547C41.3893 17.9271 41.5039 18.2995 41.5039 18.6719C41.5039 18.987 41.4108 19.3594 41.2246 19.7891C41.0384 20.2188 40.8307 20.6341 40.6016 21.0352C40.3438 21.5078 40.043 21.9805 39.6992 22.4531L34.3281 30.6602V31.0469L40.3008 40.457C40.6016 40.9297 40.8594 41.4023 41.0742 41.875C41.3034 42.3333 41.418 42.7917 41.418 43.25C41.418 43.6367 41.3105 44.0234 41.0957 44.4102C40.8952 44.7826 40.5156 45.1406 39.957 45.4844C39.3125 45.8281 38.7253 46 38.1953 46C37.4505 46 36.8346 45.7279 36.3477 45.1836C35.8607 44.6393 35.4023 44.0378 34.9727 43.3789L30.6328 36.332H29.9883L25.6484 43.3789C25.2188 44.0378 24.7604 44.6393 24.2734 45.1836C23.7865 45.7279 23.1849 46 22.4688 46C21.9245 46 21.3516 45.8281 20.75 45.4844C20.1628 45.1406 19.7546 44.7826 19.5254 44.4102C19.3105 44.0234 19.2031 43.6367 19.2031 43.25C19.2031 42.7917 19.3105 42.3333 19.5254 41.875C19.7546 41.4023 20.0195 40.9297 20.3203 40.457Z" fill="white"/>
</svg>
